<svg viewBox="0 0 185 233" xmlns="http://www.w3.org/2000/svg" fill-rule="evenodd" clip-rule="evenodd" stroke-linejoin="round" stroke-miterlimit="2"><path d="M88.02 89.506c-9.999-3.005-19.34-8.514-24.552-18.339 7.704-4.761 15.878-8.555 24.239-11.144a29.697 29.697 0 00-3.765 14.484c0 5.469 1.502 10.584 4.078 14.999m25.809 3.352c-10.118-.001-18.352-8.233-18.352-18.351 0-10.119 8.234-18.351 18.352-18.351s18.35 8.232 18.35 18.351c0 10.118-8.232 18.35-18.35 18.35m-17.286 49.902c9.999 3.006 19.341 8.514 24.554 18.339-7.706 4.761-15.879 8.556-24.241 11.145a29.68 29.68 0 003.766-14.486c0-5.47-1.502-10.583-4.079-14.998m-25.808-3.352c10.118 0 18.352 8.232 18.352 18.35 0 10.118-8.234 18.353-18.352 18.353s-18.353-8.235-18.353-18.353c0-10.118 8.235-18.35 18.353-18.35m59.848 15.168c-9.789-17.06-30.536-26.702-59.499-26.702-.04 0-.077.011-.117.012-.078 0-.153-.012-.232-.012-16.481 0-29.886 13.406-29.886 29.884 0 16.481 13.405 29.886 29.886 29.886.408 0 .805-.045 1.208-.061.203.021.4.061.608.061 17.956 0 36.01-5.705 52.235-15.194a47.98 47.98 0 01.604 7.619c0 24.322-20.625 40.664-51.319 40.664-30.12 0-62.537-21.482-62.537-68.647 0-27.39 17.837-55.694 42.446-74.396 9.79 17.063 30.536 26.705 59.5 26.705.04 0 .077-.011.117-.012.078 0 .154.012.232.012 16.478 0 29.884-13.407 29.884-29.887 0-16.479-13.406-29.887-29.884-29.887-.408 0-.804.045-1.208.061-.203-.021-.399-.061-.608-.061-17.956 0-36.01 5.705-52.235 15.194a47.977 47.977 0 01-.604-7.618c0-24.32 20.625-40.66 51.319-40.66 30.118 0 62.535 21.48 62.535 68.643 0 27.39-17.836 55.695-42.445 74.396m53.979-74.396C184.562 25.09 146.168 0 110.493 0 73.485 0 47.641 21.463 47.641 52.196c0 5.121.605 9.917 1.782 14.367C20.747 87.267 0 119.849 0 152.085c0 55.09 38.396 80.18 74.071 80.18 37.007 0 62.852-21.464 62.852-52.197 0-5.122-.605-9.919-1.783-14.368 28.676-20.705 49.422-53.286 49.422-85.521" fill="#e8441f" fill-rule="nonzero"/></svg>