<?xml version="1.0" encoding="UTF-8" standalone="no"?>
<!DOCTYPE svg PUBLIC "-//W3C//DTD SVG 1.1//EN" "http://www.w3.org/Graphics/SVG/1.1/DTD/svg11.dtd">
<svg width="100%" height="100%" viewBox="0 0 13382 3511" version="1.1" xmlns="http://www.w3.org/2000/svg" xmlns:xlink="http://www.w3.org/1999/xlink" xml:space="preserve" xmlns:serif="http://www.serif.com/" style="fill-rule:evenodd;clip-rule:evenodd;stroke-linecap:round;stroke-miterlimit:10;">
    <g transform="matrix(3.125,0,0,3.125,0,0)">
        <g id="Framework" transform="matrix(10,0,0,10,-2747.25,-550.461)">
            <g transform="matrix(1,0,0,1,223.088,-326.029)">
                <g transform="matrix(40.7208,0,0,40.7208,121.799,445.358)">
                    <path d="M0.058,-0L0.058,-0.696L0.223,-0.696L0.223,-0.39L0.464,-0.696L0.626,-0.696L0.398,-0.392L0.658,-0L0.48,-0L0.302,-0.263L0.223,-0.157L0.223,-0L0.058,-0Z" style="fill:rgb(29,30,28);fill-rule:nonzero;"/>
                </g>
                <g transform="matrix(40.7208,0,0,40.7208,145.702,445.358)">
                    <path d="M0.377,0.006C0.328,0.006 0.282,-0.002 0.24,-0.019C0.197,-0.035 0.161,-0.058 0.13,-0.089C0.098,-0.119 0.074,-0.156 0.057,-0.201C0.039,-0.245 0.03,-0.294 0.03,-0.349C0.03,-0.404 0.039,-0.453 0.056,-0.497C0.073,-0.541 0.097,-0.578 0.128,-0.609C0.159,-0.64 0.195,-0.663 0.238,-0.68C0.281,-0.696 0.327,-0.704 0.377,-0.704C0.427,-0.704 0.474,-0.696 0.517,-0.68C0.56,-0.663 0.596,-0.64 0.628,-0.609C0.659,-0.578 0.683,-0.541 0.701,-0.497C0.718,-0.453 0.727,-0.404 0.727,-0.349C0.727,-0.294 0.718,-0.245 0.701,-0.201C0.683,-0.156 0.658,-0.119 0.627,-0.089C0.596,-0.058 0.559,-0.035 0.516,-0.019C0.473,-0.002 0.427,0.006 0.377,0.006ZM0.378,-0.131C0.403,-0.131 0.426,-0.137 0.447,-0.149C0.467,-0.161 0.484,-0.177 0.498,-0.197C0.511,-0.217 0.522,-0.24 0.529,-0.267C0.536,-0.293 0.54,-0.32 0.54,-0.349C0.54,-0.378 0.536,-0.405 0.529,-0.432C0.522,-0.458 0.511,-0.481 0.498,-0.501C0.484,-0.521 0.467,-0.537 0.447,-0.549C0.426,-0.561 0.403,-0.567 0.378,-0.567C0.352,-0.567 0.329,-0.561 0.308,-0.55C0.287,-0.538 0.27,-0.522 0.256,-0.503C0.242,-0.483 0.231,-0.46 0.224,-0.433C0.217,-0.406 0.213,-0.378 0.213,-0.349C0.213,-0.319 0.217,-0.291 0.224,-0.264C0.231,-0.237 0.242,-0.214 0.256,-0.195C0.27,-0.176 0.287,-0.16 0.308,-0.149C0.329,-0.137 0.352,-0.131 0.378,-0.131Z" style="fill:rgb(29,30,28);fill-rule:nonzero;"/>
                </g>
                <g transform="matrix(40.7208,0,0,40.7208,176.487,445.358)">
                    <path d="M0.056,-0L0.056,-0.696L0.33,-0.696C0.377,-0.696 0.421,-0.688 0.462,-0.673C0.502,-0.658 0.537,-0.635 0.566,-0.606C0.595,-0.577 0.618,-0.541 0.635,-0.498C0.652,-0.455 0.66,-0.407 0.66,-0.353C0.66,-0.297 0.651,-0.247 0.634,-0.203C0.616,-0.159 0.592,-0.122 0.562,-0.092C0.532,-0.062 0.497,-0.039 0.456,-0.024C0.415,-0.008 0.372,-0 0.326,-0L0.056,-0ZM0.318,-0.563L0.22,-0.563L0.22,-0.133L0.313,-0.133C0.363,-0.133 0.404,-0.152 0.437,-0.191C0.469,-0.229 0.485,-0.284 0.485,-0.356C0.485,-0.42 0.47,-0.471 0.441,-0.508C0.412,-0.545 0.371,-0.563 0.318,-0.563Z" style="fill:rgb(29,30,28);fill-rule:nonzero;"/>
                </g>
                <g transform="matrix(40.7208,0,0,40.7208,204.829,445.358)">
                    <path d="M0.056,-0L0.056,-0.696L0.52,-0.696L0.52,-0.56L0.219,-0.56L0.219,-0.435L0.505,-0.435L0.505,-0.306L0.219,-0.306L0.219,-0.136L0.52,-0.136L0.52,-0L0.056,-0Z" style="fill:rgb(29,30,28);fill-rule:nonzero;"/>
                </g>
                <g transform="matrix(40.7208,0,0,40.7208,227.266,445.358)">
                    <rect x="0.056" y="-0.696" width="0.165" height="0.696" style="fill:rgb(29,30,28);fill-rule:nonzero;"/>
                </g>
                <g transform="matrix(40.7208,0,0,40.7208,238.505,445.358)">
                    <path d="M0.052,-0L0.052,-0.696L0.207,-0.696L0.475,-0.323C0.48,-0.314 0.486,-0.302 0.494,-0.289C0.502,-0.275 0.507,-0.266 0.509,-0.262L0.513,-0.263C0.512,-0.272 0.511,-0.286 0.511,-0.305C0.51,-0.324 0.509,-0.342 0.509,-0.359L0.509,-0.696L0.651,-0.696L0.651,-0L0.499,-0L0.225,-0.378C0.22,-0.387 0.214,-0.398 0.207,-0.411C0.2,-0.424 0.195,-0.432 0.193,-0.436L0.189,-0.435C0.19,-0.424 0.191,-0.41 0.192,-0.393C0.193,-0.376 0.193,-0.36 0.193,-0.347L0.193,-0L0.052,-0Z" style="fill:rgb(29,30,28);fill-rule:nonzero;"/>
                </g>
                <g transform="matrix(40.7208,0,0,40.7208,267.131,445.358)">
                    <path d="M0.083,-0L0.083,-0.696L0.488,-0.696L0.488,-0.642L0.143,-0.642L0.143,-0.401L0.473,-0.401L0.473,-0.347L0.143,-0.347L0.143,-0L0.083,-0Z" style="fill:rgb(232,68,30);fill-rule:nonzero;"/>
                </g>
                <g transform="matrix(40.7208,0,0,40.7208,287.695,445.358)">
                    <path d="M0.073,-0L0.073,-0.52L0.128,-0.52L0.133,-0.414C0.147,-0.45 0.167,-0.478 0.194,-0.498C0.221,-0.518 0.25,-0.528 0.281,-0.528C0.296,-0.528 0.308,-0.527 0.318,-0.525C0.327,-0.523 0.336,-0.52 0.345,-0.515L0.345,-0.452C0.334,-0.457 0.323,-0.46 0.312,-0.464C0.301,-0.467 0.288,-0.468 0.273,-0.468C0.235,-0.468 0.202,-0.451 0.175,-0.418C0.148,-0.384 0.134,-0.342 0.134,-0.292L0.134,-0L0.073,-0Z" style="fill:rgb(232,68,30);fill-rule:nonzero;"/>
                </g>
                <g transform="matrix(40.7208,0,0,40.7208,300.848,445.358)">
                    <path d="M0.216,0.006C0.192,0.006 0.169,0.003 0.148,-0.004C0.126,-0.01 0.107,-0.02 0.091,-0.033C0.075,-0.046 0.062,-0.063 0.053,-0.084C0.044,-0.105 0.039,-0.129 0.039,-0.157C0.039,-0.184 0.044,-0.208 0.054,-0.229C0.064,-0.25 0.078,-0.267 0.095,-0.281C0.112,-0.294 0.131,-0.304 0.154,-0.311C0.176,-0.318 0.199,-0.321 0.223,-0.321C0.256,-0.321 0.285,-0.315 0.31,-0.304C0.335,-0.293 0.354,-0.277 0.368,-0.256L0.368,-0.346C0.368,-0.388 0.357,-0.42 0.334,-0.442C0.311,-0.463 0.273,-0.474 0.222,-0.474C0.191,-0.474 0.164,-0.471 0.141,-0.465C0.117,-0.459 0.097,-0.452 0.08,-0.445L0.08,-0.495C0.094,-0.503 0.115,-0.51 0.143,-0.518C0.17,-0.525 0.201,-0.528 0.236,-0.528C0.304,-0.528 0.353,-0.512 0.383,-0.481C0.413,-0.449 0.428,-0.406 0.428,-0.352L0.428,-0.081C0.428,-0.065 0.429,-0.05 0.43,-0.035C0.431,-0.02 0.433,-0.008 0.435,-0L0.376,-0L0.37,-0.064C0.355,-0.041 0.334,-0.024 0.307,-0.012C0.279,0 0.249,0.006 0.216,0.006ZM0.236,-0.037C0.253,-0.037 0.269,-0.04 0.286,-0.045C0.302,-0.05 0.316,-0.057 0.329,-0.068C0.342,-0.078 0.352,-0.091 0.36,-0.106C0.367,-0.121 0.371,-0.139 0.371,-0.16C0.371,-0.179 0.367,-0.196 0.36,-0.211C0.353,-0.226 0.343,-0.238 0.331,-0.248C0.318,-0.257 0.304,-0.265 0.288,-0.27C0.272,-0.275 0.256,-0.277 0.239,-0.277C0.203,-0.277 0.171,-0.268 0.144,-0.249C0.116,-0.23 0.102,-0.2 0.102,-0.16C0.102,-0.117 0.115,-0.085 0.142,-0.066C0.169,-0.047 0.2,-0.037 0.236,-0.037Z" style="fill:rgb(232,68,30);fill-rule:nonzero;"/>
                </g>
                <g transform="matrix(40.7208,0,0,40.7208,321.046,445.358)">
                    <path d="M0.073,-0L0.073,-0.52L0.128,-0.52L0.132,-0.43C0.147,-0.46 0.168,-0.484 0.197,-0.502C0.225,-0.519 0.259,-0.528 0.3,-0.528C0.343,-0.528 0.379,-0.518 0.407,-0.497C0.435,-0.476 0.454,-0.446 0.465,-0.409C0.477,-0.445 0.498,-0.474 0.528,-0.496C0.558,-0.517 0.596,-0.528 0.641,-0.528C0.698,-0.528 0.741,-0.51 0.771,-0.475C0.801,-0.44 0.816,-0.391 0.816,-0.33L0.816,-0L0.755,-0L0.755,-0.319C0.755,-0.368 0.744,-0.407 0.722,-0.435C0.7,-0.462 0.667,-0.476 0.623,-0.476C0.6,-0.476 0.579,-0.472 0.56,-0.463C0.541,-0.454 0.526,-0.443 0.514,-0.429C0.501,-0.415 0.492,-0.399 0.485,-0.38C0.478,-0.361 0.475,-0.341 0.475,-0.32L0.475,-0L0.414,-0L0.414,-0.319C0.414,-0.368 0.403,-0.407 0.381,-0.435C0.359,-0.462 0.326,-0.476 0.282,-0.476C0.259,-0.476 0.238,-0.472 0.219,-0.463C0.2,-0.454 0.185,-0.443 0.173,-0.429C0.16,-0.415 0.151,-0.399 0.144,-0.38C0.137,-0.361 0.134,-0.341 0.134,-0.32L0.134,-0L0.073,-0Z" style="fill:rgb(232,68,30);fill-rule:nonzero;"/>
                </g>
                <g transform="matrix(40.7208,0,0,40.7208,357.084,445.358)">
                    <path d="M0.304,0.007C0.268,0.007 0.234,0.001 0.202,-0.011C0.17,-0.022 0.142,-0.04 0.119,-0.063C0.096,-0.086 0.077,-0.114 0.063,-0.149C0.049,-0.183 0.042,-0.223 0.042,-0.268C0.042,-0.307 0.048,-0.342 0.06,-0.374C0.071,-0.406 0.087,-0.434 0.108,-0.457C0.128,-0.48 0.152,-0.497 0.179,-0.51C0.206,-0.523 0.236,-0.529 0.267,-0.529C0.303,-0.529 0.335,-0.523 0.362,-0.51C0.389,-0.497 0.412,-0.48 0.43,-0.458C0.447,-0.436 0.46,-0.41 0.469,-0.38C0.478,-0.349 0.481,-0.316 0.48,-0.281L0.479,-0.261L0.104,-0.261C0.105,-0.225 0.111,-0.194 0.123,-0.167C0.134,-0.139 0.149,-0.117 0.168,-0.099C0.187,-0.08 0.209,-0.067 0.234,-0.058C0.259,-0.048 0.285,-0.044 0.314,-0.044C0.347,-0.044 0.377,-0.049 0.404,-0.059C0.431,-0.068 0.453,-0.079 0.472,-0.09L0.472,-0.04C0.453,-0.027 0.43,-0.016 0.402,-0.007C0.374,0.003 0.341,0.007 0.304,0.007ZM0.267,-0.472C0.224,-0.472 0.188,-0.457 0.159,-0.427C0.13,-0.397 0.112,-0.357 0.106,-0.306L0.424,-0.306C0.423,-0.358 0.407,-0.399 0.379,-0.428C0.349,-0.457 0.312,-0.472 0.267,-0.472Z" style="fill:rgb(232,68,30);fill-rule:nonzero;"/>
                </g>
                <g transform="matrix(40.7208,0,0,40.7208,377.729,445.358)">
                    <path d="M0.172,-0L0.007,-0.52L0.071,-0.52L0.204,-0.074L0.356,-0.52L0.413,-0.52L0.551,-0.066L0.697,-0.52L0.756,-0.52L0.582,-0L0.518,-0L0.381,-0.435L0.23,-0L0.172,-0Z" style="fill:rgb(232,68,30);fill-rule:nonzero;"/>
                </g>
                <g transform="matrix(40.7208,0,0,40.7208,408.107,445.358)">
                    <path d="M0.281,0.006C0.247,0.006 0.215,-0 0.186,-0.013C0.157,-0.025 0.131,-0.042 0.11,-0.065C0.089,-0.088 0.072,-0.116 0.06,-0.149C0.048,-0.182 0.042,-0.22 0.042,-0.261C0.042,-0.302 0.048,-0.34 0.06,-0.373C0.072,-0.406 0.089,-0.435 0.11,-0.458C0.131,-0.481 0.157,-0.498 0.186,-0.511C0.215,-0.523 0.247,-0.529 0.281,-0.529C0.315,-0.529 0.347,-0.523 0.376,-0.511C0.405,-0.498 0.431,-0.481 0.452,-0.458C0.472,-0.435 0.489,-0.406 0.501,-0.373C0.513,-0.34 0.519,-0.302 0.519,-0.261C0.519,-0.22 0.513,-0.182 0.501,-0.149C0.489,-0.116 0.472,-0.088 0.452,-0.065C0.431,-0.042 0.405,-0.025 0.376,-0.013C0.347,-0 0.315,0.006 0.281,0.006ZM0.281,-0.048C0.308,-0.048 0.333,-0.054 0.355,-0.065C0.376,-0.076 0.395,-0.091 0.41,-0.11C0.425,-0.129 0.436,-0.151 0.444,-0.177C0.452,-0.203 0.456,-0.231 0.456,-0.261C0.456,-0.324 0.441,-0.375 0.41,-0.414C0.379,-0.453 0.336,-0.472 0.281,-0.472C0.226,-0.472 0.183,-0.453 0.152,-0.414C0.121,-0.375 0.105,-0.324 0.105,-0.261C0.105,-0.231 0.109,-0.203 0.117,-0.177C0.125,-0.151 0.136,-0.129 0.152,-0.11C0.167,-0.091 0.185,-0.076 0.207,-0.065C0.229,-0.054 0.254,-0.048 0.281,-0.048Z" style="fill:rgb(232,68,30);fill-rule:nonzero;"/>
                </g>
                <g transform="matrix(40.7208,0,0,40.7208,430.992,445.358)">
                    <path d="M0.073,-0L0.073,-0.52L0.128,-0.52L0.133,-0.414C0.147,-0.45 0.167,-0.478 0.194,-0.498C0.221,-0.518 0.25,-0.528 0.281,-0.528C0.296,-0.528 0.308,-0.527 0.318,-0.525C0.327,-0.523 0.336,-0.52 0.345,-0.515L0.345,-0.452C0.334,-0.457 0.323,-0.46 0.312,-0.464C0.301,-0.467 0.288,-0.468 0.273,-0.468C0.235,-0.468 0.202,-0.451 0.175,-0.418C0.148,-0.384 0.134,-0.342 0.134,-0.292L0.134,-0L0.073,-0Z" style="fill:rgb(232,68,30);fill-rule:nonzero;"/>
                </g>
                <g transform="matrix(40.7208,0,0,40.7208,445.692,445.358)">
                    <path d="M0.073,-0L0.073,-0.72L0.134,-0.72L0.134,-0.254L0.36,-0.52L0.425,-0.52L0.248,-0.307L0.464,-0L0.395,-0L0.208,-0.259L0.134,-0.17L0.134,-0L0.073,-0Z" style="fill:rgb(232,68,30);fill-rule:nonzero;"/>
                </g>
            </g>
            <g transform="matrix(0,1,1,0,300.469,117.054)">
                <circle cx="8.048" cy="0" r="8.048" style="fill:none;stroke:rgb(29,29,27);stroke-width:3.85px;"/>
            </g>
            <g transform="matrix(-0.999483,0.0321613,0.0321613,0.999483,298.887,120.287)">
                <path d="M-1.801,-3.177C-12.865,-2.821 -21.693,1.887 -21.336,12.952C-21.051,21.825 -13.408,28.196 -1.801,27.823C9.215,27.469 20.728,19.331 20.18,2.274C19.631,-14.781 0.712,-31.05 -16.344,-30.501" style="fill:none;fill-rule:nonzero;stroke:rgb(29,29,27);stroke-width:3.85px;"/>
            </g>
            <g transform="matrix(0,-1,-1,0,314.848,89.2758)">
                <ellipse cx="-8.047" cy="0" rx="8.048" ry="8.047" style="fill:none;stroke:rgb(29,29,27);stroke-width:3.85px;"/>
            </g>
            <g transform="matrix(0.999483,-0.0321613,-0.0321613,-0.999483,314.783,105.398)">
                <path d="M-0.051,0.029C-11.115,0.385 -19.943,5.093 -19.586,16.158C-19.301,25.03 -11.658,31.402 -0.051,31.029C10.965,30.675 22.478,22.536 21.93,5.48C21.381,-11.576 2.462,-27.844 -14.594,-27.295" style="fill:none;fill-rule:nonzero;stroke:rgb(29,29,27);stroke-width:3.85px;"/>
            </g>
            <g>
                <g transform="matrix(1,0,0,1,419.933,133.98)">
                    <path d="M0,-0.057L6.524,-6.57L-6.56,-6.57L-6.56,6.513L6.524,6.513L-0.003,-0.054L0,-0.057Z" style="fill:rgb(0,4,0);fill-rule:nonzero;"/>
                </g>
                <g transform="matrix(1,0,0,1,281.227,12.9329)">
                    <g transform="matrix(18.9333,0,0,18.9333,63.6589,127.427)">
                        <path d="M0.073,0.237L0.073,-0.519L0.128,-0.519L0.131,-0.419C0.148,-0.452 0.172,-0.478 0.205,-0.498C0.238,-0.518 0.274,-0.528 0.314,-0.528C0.346,-0.528 0.376,-0.522 0.403,-0.511C0.43,-0.499 0.454,-0.482 0.474,-0.46C0.493,-0.437 0.509,-0.41 0.52,-0.377C0.531,-0.344 0.536,-0.307 0.536,-0.266C0.536,-0.225 0.531,-0.187 0.52,-0.154C0.509,-0.12 0.493,-0.091 0.474,-0.068C0.454,-0.044 0.431,-0.026 0.404,-0.013C0.377,-0 0.347,0.006 0.315,0.006C0.275,0.006 0.239,-0.003 0.207,-0.021C0.175,-0.038 0.151,-0.063 0.134,-0.095L0.134,0.237L0.073,0.237ZM0.303,-0.046C0.352,-0.046 0.393,-0.066 0.426,-0.105C0.459,-0.144 0.475,-0.196 0.475,-0.26C0.475,-0.325 0.459,-0.377 0.428,-0.417C0.396,-0.457 0.353,-0.477 0.3,-0.477C0.249,-0.477 0.208,-0.457 0.177,-0.418C0.146,-0.378 0.131,-0.326 0.131,-0.262C0.131,-0.195 0.147,-0.143 0.178,-0.104C0.209,-0.065 0.251,-0.046 0.303,-0.046Z" style="fill-rule:nonzero;"/>
                    </g>
                    <g transform="matrix(18.9333,0,0,18.9333,74.3752,127.427)">
                        <path d="M0.216,0.006C0.192,0.006 0.169,0.003 0.148,-0.004C0.126,-0.01 0.107,-0.02 0.091,-0.033C0.075,-0.046 0.062,-0.063 0.053,-0.084C0.044,-0.105 0.039,-0.129 0.039,-0.157C0.039,-0.184 0.044,-0.208 0.054,-0.229C0.064,-0.25 0.078,-0.267 0.095,-0.281C0.112,-0.294 0.131,-0.304 0.154,-0.311C0.176,-0.318 0.199,-0.321 0.223,-0.321C0.256,-0.321 0.285,-0.315 0.31,-0.304C0.335,-0.293 0.354,-0.277 0.368,-0.256L0.368,-0.346C0.368,-0.388 0.357,-0.42 0.334,-0.442C0.311,-0.463 0.273,-0.474 0.222,-0.474C0.191,-0.474 0.164,-0.471 0.141,-0.465C0.117,-0.459 0.097,-0.452 0.08,-0.445L0.08,-0.495C0.094,-0.503 0.115,-0.51 0.143,-0.518C0.17,-0.525 0.201,-0.528 0.236,-0.528C0.304,-0.528 0.353,-0.512 0.383,-0.481C0.413,-0.449 0.428,-0.406 0.428,-0.352L0.428,-0.081C0.428,-0.065 0.429,-0.05 0.43,-0.035C0.431,-0.02 0.433,-0.008 0.435,-0L0.376,-0L0.37,-0.064C0.355,-0.041 0.334,-0.024 0.307,-0.012C0.279,0 0.249,0.006 0.216,0.006ZM0.236,-0.037C0.253,-0.037 0.269,-0.04 0.286,-0.045C0.302,-0.05 0.316,-0.057 0.329,-0.068C0.342,-0.078 0.352,-0.091 0.36,-0.106C0.367,-0.121 0.371,-0.139 0.371,-0.16C0.371,-0.179 0.367,-0.196 0.36,-0.211C0.353,-0.226 0.343,-0.238 0.331,-0.248C0.318,-0.257 0.304,-0.265 0.288,-0.27C0.272,-0.275 0.256,-0.277 0.239,-0.277C0.203,-0.277 0.171,-0.268 0.144,-0.249C0.116,-0.23 0.102,-0.2 0.102,-0.16C0.102,-0.117 0.115,-0.085 0.142,-0.066C0.169,-0.047 0.2,-0.037 0.236,-0.037Z" style="fill-rule:nonzero;"/>
                    </g>
                    <g transform="matrix(18.9333,0,0,18.9333,83.7661,127.427)">
                        <path d="M0.103,-0.622C0.093,-0.622 0.084,-0.626 0.077,-0.633C0.07,-0.64 0.066,-0.648 0.066,-0.658C0.066,-0.669 0.07,-0.678 0.077,-0.685C0.084,-0.692 0.093,-0.696 0.103,-0.696C0.114,-0.696 0.123,-0.692 0.131,-0.685C0.138,-0.678 0.142,-0.669 0.142,-0.658C0.142,-0.648 0.138,-0.64 0.131,-0.633C0.123,-0.626 0.114,-0.622 0.103,-0.622ZM0.073,-0L0.073,-0.52L0.134,-0.52L0.134,-0L0.073,-0Z" style="fill-rule:nonzero;"/>
                    </g>
                    <g transform="matrix(18.9333,0,0,18.9333,87.7043,127.427)">
                        <path d="M0.073,-0L0.073,-0.52L0.128,-0.52L0.132,-0.43C0.147,-0.46 0.168,-0.484 0.197,-0.502C0.225,-0.519 0.259,-0.528 0.3,-0.528C0.357,-0.528 0.4,-0.51 0.43,-0.475C0.46,-0.44 0.475,-0.391 0.475,-0.33L0.475,-0L0.414,-0L0.414,-0.319C0.414,-0.368 0.403,-0.407 0.381,-0.435C0.359,-0.462 0.326,-0.476 0.282,-0.476C0.259,-0.476 0.238,-0.472 0.219,-0.463C0.2,-0.454 0.185,-0.443 0.173,-0.429C0.16,-0.415 0.151,-0.399 0.144,-0.38C0.137,-0.361 0.134,-0.341 0.134,-0.32L0.134,-0L0.073,-0Z" style="fill-rule:nonzero;"/>
                    </g>
                    <g transform="matrix(18.9333,0,0,18.9333,98.0229,127.427)">
                        <rect x="0.073" y="-0.72" width="0.061" height="0.72" style="fill-rule:nonzero;"/>
                    </g>
                    <g transform="matrix(18.9333,0,0,18.9333,101.961,127.427)">
                        <path d="M0.304,0.007C0.268,0.007 0.234,0.001 0.202,-0.011C0.17,-0.022 0.142,-0.04 0.119,-0.063C0.096,-0.086 0.077,-0.114 0.063,-0.149C0.049,-0.183 0.042,-0.223 0.042,-0.268C0.042,-0.307 0.048,-0.342 0.06,-0.374C0.071,-0.406 0.087,-0.434 0.108,-0.457C0.128,-0.48 0.152,-0.497 0.179,-0.51C0.206,-0.523 0.236,-0.529 0.267,-0.529C0.303,-0.529 0.335,-0.523 0.362,-0.51C0.389,-0.497 0.412,-0.48 0.43,-0.458C0.447,-0.436 0.46,-0.41 0.469,-0.38C0.478,-0.349 0.481,-0.316 0.48,-0.281L0.479,-0.261L0.104,-0.261C0.105,-0.225 0.111,-0.194 0.123,-0.167C0.134,-0.139 0.149,-0.117 0.168,-0.099C0.187,-0.08 0.209,-0.067 0.234,-0.058C0.259,-0.048 0.285,-0.044 0.314,-0.044C0.347,-0.044 0.377,-0.049 0.404,-0.059C0.431,-0.068 0.453,-0.079 0.472,-0.09L0.472,-0.04C0.453,-0.027 0.43,-0.016 0.402,-0.007C0.374,0.003 0.341,0.007 0.304,0.007ZM0.267,-0.472C0.224,-0.472 0.188,-0.457 0.159,-0.427C0.13,-0.397 0.112,-0.357 0.106,-0.306L0.424,-0.306C0.423,-0.358 0.407,-0.399 0.379,-0.428C0.349,-0.457 0.312,-0.472 0.267,-0.472Z" style="fill-rule:nonzero;"/>
                    </g>
                    <g transform="matrix(18.9333,0,0,18.9333,111.901,127.427)">
                        <path d="M0.201,0.007C0.166,0.007 0.135,0.004 0.108,-0.003C0.081,-0.01 0.058,-0.018 0.039,-0.027L0.039,-0.079C0.063,-0.068 0.087,-0.06 0.112,-0.053C0.137,-0.046 0.166,-0.043 0.199,-0.043C0.234,-0.043 0.263,-0.05 0.288,-0.064C0.312,-0.078 0.324,-0.099 0.324,-0.128C0.324,-0.158 0.313,-0.181 0.29,-0.196C0.267,-0.211 0.23,-0.229 0.177,-0.251C0.12,-0.274 0.083,-0.296 0.065,-0.316C0.046,-0.335 0.037,-0.361 0.037,-0.394C0.037,-0.432 0.054,-0.464 0.087,-0.49C0.12,-0.515 0.166,-0.528 0.224,-0.528C0.257,-0.528 0.285,-0.525 0.309,-0.519C0.332,-0.513 0.352,-0.507 0.368,-0.5L0.368,-0.445C0.347,-0.454 0.326,-0.461 0.304,-0.468C0.281,-0.474 0.255,-0.477 0.225,-0.477C0.186,-0.477 0.156,-0.47 0.133,-0.457C0.11,-0.444 0.098,-0.424 0.098,-0.397C0.098,-0.375 0.107,-0.357 0.125,-0.342C0.142,-0.327 0.178,-0.308 0.231,-0.287C0.282,-0.266 0.321,-0.246 0.347,-0.225C0.372,-0.204 0.385,-0.174 0.385,-0.133C0.385,-0.11 0.38,-0.089 0.37,-0.072C0.359,-0.054 0.345,-0.039 0.329,-0.028C0.312,-0.016 0.292,-0.007 0.27,-0.002C0.247,0.004 0.224,0.007 0.201,0.007Z" style="fill-rule:nonzero;"/>
                    </g>
                    <g transform="matrix(18.9333,0,0,18.9333,119.38,127.427)">
                        <path d="M0.201,0.007C0.166,0.007 0.135,0.004 0.108,-0.003C0.081,-0.01 0.058,-0.018 0.039,-0.027L0.039,-0.079C0.063,-0.068 0.087,-0.06 0.112,-0.053C0.137,-0.046 0.166,-0.043 0.199,-0.043C0.234,-0.043 0.263,-0.05 0.288,-0.064C0.312,-0.078 0.324,-0.099 0.324,-0.128C0.324,-0.158 0.313,-0.181 0.29,-0.196C0.267,-0.211 0.23,-0.229 0.177,-0.251C0.12,-0.274 0.083,-0.296 0.065,-0.316C0.046,-0.335 0.037,-0.361 0.037,-0.394C0.037,-0.432 0.054,-0.464 0.087,-0.49C0.12,-0.515 0.166,-0.528 0.224,-0.528C0.257,-0.528 0.285,-0.525 0.309,-0.519C0.332,-0.513 0.352,-0.507 0.368,-0.5L0.368,-0.445C0.347,-0.454 0.326,-0.461 0.304,-0.468C0.281,-0.474 0.255,-0.477 0.225,-0.477C0.186,-0.477 0.156,-0.47 0.133,-0.457C0.11,-0.444 0.098,-0.424 0.098,-0.397C0.098,-0.375 0.107,-0.357 0.125,-0.342C0.142,-0.327 0.178,-0.308 0.231,-0.287C0.282,-0.266 0.321,-0.246 0.347,-0.225C0.372,-0.204 0.385,-0.174 0.385,-0.133C0.385,-0.11 0.38,-0.089 0.37,-0.072C0.359,-0.054 0.345,-0.039 0.329,-0.028C0.312,-0.016 0.292,-0.007 0.27,-0.002C0.247,0.004 0.224,0.007 0.201,0.007Z" style="fill-rule:nonzero;"/>
                    </g>
                </g>
                <g transform="matrix(1,0,0,1,366.227,12.9329)">
                    <g transform="matrix(18.9333,0,0,18.9333,63.6589,127.427)">
                        <path d="M0.073,-0L0.073,-0.52L0.128,-0.52L0.132,-0.43C0.147,-0.46 0.168,-0.484 0.197,-0.502C0.225,-0.519 0.259,-0.528 0.3,-0.528C0.343,-0.528 0.379,-0.518 0.407,-0.497C0.435,-0.476 0.454,-0.446 0.465,-0.409C0.477,-0.445 0.498,-0.474 0.528,-0.496C0.558,-0.517 0.596,-0.528 0.641,-0.528C0.698,-0.528 0.741,-0.51 0.771,-0.475C0.801,-0.44 0.816,-0.391 0.816,-0.33L0.816,-0L0.755,-0L0.755,-0.319C0.755,-0.368 0.744,-0.407 0.722,-0.435C0.7,-0.462 0.667,-0.476 0.623,-0.476C0.6,-0.476 0.579,-0.472 0.56,-0.463C0.541,-0.454 0.526,-0.443 0.514,-0.429C0.501,-0.415 0.492,-0.399 0.485,-0.38C0.478,-0.361 0.475,-0.341 0.475,-0.32L0.475,-0L0.414,-0L0.414,-0.319C0.414,-0.368 0.403,-0.407 0.381,-0.435C0.359,-0.462 0.326,-0.476 0.282,-0.476C0.259,-0.476 0.238,-0.472 0.219,-0.463C0.2,-0.454 0.185,-0.443 0.173,-0.429C0.16,-0.415 0.151,-0.399 0.144,-0.38C0.137,-0.361 0.134,-0.341 0.134,-0.32L0.134,-0L0.073,-0Z" style="fill-rule:nonzero;"/>
                    </g>
                    <g transform="matrix(18.9333,0,0,18.9333,80.4149,127.427)">
                        <path d="M0.132,-0.52L0.132,-0.196C0.132,-0.143 0.144,-0.105 0.168,-0.081C0.192,-0.056 0.226,-0.044 0.27,-0.044C0.293,-0.044 0.314,-0.048 0.332,-0.057C0.349,-0.066 0.364,-0.077 0.376,-0.092C0.387,-0.106 0.396,-0.123 0.402,-0.142C0.408,-0.161 0.411,-0.182 0.411,-0.203L0.411,-0.52L0.472,-0.52L0.472,-0L0.418,-0L0.413,-0.09C0.4,-0.06 0.38,-0.036 0.352,-0.019C0.324,-0.002 0.29,0.007 0.25,0.007C0.193,0.007 0.149,-0.01 0.118,-0.043C0.087,-0.076 0.071,-0.123 0.071,-0.186L0.071,-0.52L0.132,-0.52Z" style="fill-rule:nonzero;"/>
                    </g>
                    <g transform="matrix(18.9333,0,0,18.9333,90.7525,127.427)">
                        <rect x="0.073" y="-0.72" width="0.061" height="0.72" style="fill-rule:nonzero;"/>
                    </g>
                    <g transform="matrix(18.9333,0,0,18.9333,94.6907,127.427)">
                        <path d="M0.214,0.006C0.2,0.006 0.186,0.004 0.172,0.001C0.158,-0.003 0.145,-0.009 0.134,-0.018C0.123,-0.027 0.113,-0.038 0.106,-0.053C0.099,-0.067 0.095,-0.085 0.095,-0.106L0.095,-0.47L0.031,-0.47L0.031,-0.52L0.095,-0.52L0.102,-0.622L0.156,-0.622L0.156,-0.52L0.306,-0.52L0.306,-0.47L0.156,-0.47L0.156,-0.119C0.156,-0.095 0.162,-0.077 0.175,-0.064C0.188,-0.051 0.204,-0.045 0.225,-0.045C0.242,-0.045 0.256,-0.047 0.269,-0.052C0.281,-0.056 0.293,-0.061 0.305,-0.067L0.305,-0.02C0.294,-0.013 0.281,-0.007 0.267,-0.002C0.252,0.003 0.235,0.006 0.214,0.006Z" style="fill-rule:nonzero;"/>
                    </g>
                    <g transform="matrix(18.9333,0,0,18.9333,100.825,127.427)">
                        <path d="M0.103,-0.622C0.093,-0.622 0.084,-0.626 0.077,-0.633C0.07,-0.64 0.066,-0.648 0.066,-0.658C0.066,-0.669 0.07,-0.678 0.077,-0.685C0.084,-0.692 0.093,-0.696 0.103,-0.696C0.114,-0.696 0.123,-0.692 0.131,-0.685C0.138,-0.678 0.142,-0.669 0.142,-0.658C0.142,-0.648 0.138,-0.64 0.131,-0.633C0.123,-0.626 0.114,-0.622 0.103,-0.622ZM0.073,-0L0.073,-0.52L0.134,-0.52L0.134,-0L0.073,-0Z" style="fill-rule:nonzero;"/>
                    </g>
                    <g transform="matrix(18.9333,0,0,18.9333,104.763,127.427)">
                        <path d="M0.073,0.237L0.073,-0.519L0.128,-0.519L0.131,-0.419C0.148,-0.452 0.172,-0.478 0.205,-0.498C0.238,-0.518 0.274,-0.528 0.314,-0.528C0.346,-0.528 0.376,-0.522 0.403,-0.511C0.43,-0.499 0.454,-0.482 0.474,-0.46C0.493,-0.437 0.509,-0.41 0.52,-0.377C0.531,-0.344 0.536,-0.307 0.536,-0.266C0.536,-0.225 0.531,-0.187 0.52,-0.154C0.509,-0.12 0.493,-0.091 0.474,-0.068C0.454,-0.044 0.431,-0.026 0.404,-0.013C0.377,-0 0.347,0.006 0.315,0.006C0.275,0.006 0.239,-0.003 0.207,-0.021C0.175,-0.038 0.151,-0.063 0.134,-0.095L0.134,0.237L0.073,0.237ZM0.303,-0.046C0.352,-0.046 0.393,-0.066 0.426,-0.105C0.459,-0.144 0.475,-0.196 0.475,-0.26C0.475,-0.325 0.459,-0.377 0.428,-0.417C0.396,-0.457 0.353,-0.477 0.3,-0.477C0.249,-0.477 0.208,-0.457 0.177,-0.418C0.146,-0.378 0.131,-0.326 0.131,-0.262C0.131,-0.195 0.147,-0.143 0.178,-0.104C0.209,-0.065 0.251,-0.046 0.303,-0.046Z" style="fill-rule:nonzero;"/>
                    </g>
                    <g transform="matrix(18.9333,0,0,18.9333,115.707,127.427)">
                        <rect x="0.073" y="-0.72" width="0.061" height="0.72" style="fill-rule:nonzero;"/>
                    </g>
                    <g transform="matrix(18.9333,0,0,18.9333,119.645,127.427)">
                        <path d="M0.216,0.006C0.192,0.006 0.169,0.003 0.148,-0.004C0.126,-0.01 0.107,-0.02 0.091,-0.033C0.075,-0.046 0.062,-0.063 0.053,-0.084C0.044,-0.105 0.039,-0.129 0.039,-0.157C0.039,-0.184 0.044,-0.208 0.054,-0.229C0.064,-0.25 0.078,-0.267 0.095,-0.281C0.112,-0.294 0.131,-0.304 0.154,-0.311C0.176,-0.318 0.199,-0.321 0.223,-0.321C0.256,-0.321 0.285,-0.315 0.31,-0.304C0.335,-0.293 0.354,-0.277 0.368,-0.256L0.368,-0.346C0.368,-0.388 0.357,-0.42 0.334,-0.442C0.311,-0.463 0.273,-0.474 0.222,-0.474C0.191,-0.474 0.164,-0.471 0.141,-0.465C0.117,-0.459 0.097,-0.452 0.08,-0.445L0.08,-0.495C0.094,-0.503 0.115,-0.51 0.143,-0.518C0.17,-0.525 0.201,-0.528 0.236,-0.528C0.304,-0.528 0.353,-0.512 0.383,-0.481C0.413,-0.449 0.428,-0.406 0.428,-0.352L0.428,-0.081C0.428,-0.065 0.429,-0.05 0.43,-0.035C0.431,-0.02 0.433,-0.008 0.435,-0L0.376,-0L0.37,-0.064C0.355,-0.041 0.334,-0.024 0.307,-0.012C0.279,0 0.249,0.006 0.216,0.006ZM0.236,-0.037C0.253,-0.037 0.269,-0.04 0.286,-0.045C0.302,-0.05 0.316,-0.057 0.329,-0.068C0.342,-0.078 0.352,-0.091 0.36,-0.106C0.367,-0.121 0.371,-0.139 0.371,-0.16C0.371,-0.179 0.367,-0.196 0.36,-0.211C0.353,-0.226 0.343,-0.238 0.331,-0.248C0.318,-0.257 0.304,-0.265 0.288,-0.27C0.272,-0.275 0.256,-0.277 0.239,-0.277C0.203,-0.277 0.171,-0.268 0.144,-0.249C0.116,-0.23 0.102,-0.2 0.102,-0.16C0.102,-0.117 0.115,-0.085 0.142,-0.066C0.169,-0.047 0.2,-0.037 0.236,-0.037Z" style="fill-rule:nonzero;"/>
                    </g>
                    <g transform="matrix(18.9333,0,0,18.9333,128.941,127.427)">
                        <path d="M0.214,0.006C0.2,0.006 0.186,0.004 0.172,0.001C0.158,-0.003 0.145,-0.009 0.134,-0.018C0.123,-0.027 0.113,-0.038 0.106,-0.053C0.099,-0.067 0.095,-0.085 0.095,-0.106L0.095,-0.47L0.031,-0.47L0.031,-0.52L0.095,-0.52L0.102,-0.622L0.156,-0.622L0.156,-0.52L0.306,-0.52L0.306,-0.47L0.156,-0.47L0.156,-0.119C0.156,-0.095 0.162,-0.077 0.175,-0.064C0.188,-0.051 0.204,-0.045 0.225,-0.045C0.242,-0.045 0.256,-0.047 0.269,-0.052C0.281,-0.056 0.293,-0.061 0.305,-0.067L0.305,-0.02C0.294,-0.013 0.281,-0.007 0.267,-0.002C0.252,0.003 0.235,0.006 0.214,0.006Z" style="fill-rule:nonzero;"/>
                    </g>
                    <g transform="matrix(18.9333,0,0,18.9333,135.075,127.427)">
                        <path d="M0.097,-0L0.097,-0.467L0.04,-0.467L0.04,-0.517L0.097,-0.517L0.097,-0.576C0.097,-0.627 0.111,-0.664 0.14,-0.688C0.169,-0.711 0.204,-0.723 0.245,-0.723C0.262,-0.723 0.278,-0.721 0.292,-0.717C0.306,-0.713 0.317,-0.709 0.325,-0.704L0.325,-0.653C0.316,-0.658 0.305,-0.663 0.292,-0.666C0.279,-0.669 0.266,-0.671 0.251,-0.671C0.228,-0.671 0.206,-0.664 0.187,-0.649C0.167,-0.634 0.157,-0.608 0.157,-0.569L0.157,-0.517L0.325,-0.517L0.325,-0.467L0.157,-0.467L0.157,-0L0.097,-0Z" style="fill-rule:nonzero;"/>
                    </g>
                    <g transform="matrix(18.9333,0,0,18.9333,140.85,127.427)">
                        <path d="M0.281,0.006C0.247,0.006 0.215,-0 0.186,-0.013C0.157,-0.025 0.131,-0.042 0.11,-0.065C0.089,-0.088 0.072,-0.116 0.06,-0.149C0.048,-0.182 0.042,-0.22 0.042,-0.261C0.042,-0.302 0.048,-0.34 0.06,-0.373C0.072,-0.406 0.089,-0.435 0.11,-0.458C0.131,-0.481 0.157,-0.498 0.186,-0.511C0.215,-0.523 0.247,-0.529 0.281,-0.529C0.315,-0.529 0.347,-0.523 0.376,-0.511C0.405,-0.498 0.431,-0.481 0.452,-0.458C0.472,-0.435 0.489,-0.406 0.501,-0.373C0.513,-0.34 0.519,-0.302 0.519,-0.261C0.519,-0.22 0.513,-0.182 0.501,-0.149C0.489,-0.116 0.472,-0.088 0.452,-0.065C0.431,-0.042 0.405,-0.025 0.376,-0.013C0.347,-0 0.315,0.006 0.281,0.006ZM0.281,-0.048C0.308,-0.048 0.333,-0.054 0.355,-0.065C0.376,-0.076 0.395,-0.091 0.41,-0.11C0.425,-0.129 0.436,-0.151 0.444,-0.177C0.452,-0.203 0.456,-0.231 0.456,-0.261C0.456,-0.324 0.441,-0.375 0.41,-0.414C0.379,-0.453 0.336,-0.472 0.281,-0.472C0.226,-0.472 0.183,-0.453 0.152,-0.414C0.121,-0.375 0.105,-0.324 0.105,-0.261C0.105,-0.231 0.109,-0.203 0.117,-0.177C0.125,-0.151 0.136,-0.129 0.152,-0.11C0.167,-0.091 0.185,-0.076 0.207,-0.065C0.229,-0.054 0.254,-0.048 0.281,-0.048Z" style="fill-rule:nonzero;"/>
                    </g>
                    <g transform="matrix(18.9333,0,0,18.9333,151.491,127.427)">
                        <path d="M0.073,-0L0.073,-0.52L0.128,-0.52L0.133,-0.414C0.147,-0.45 0.167,-0.478 0.194,-0.498C0.221,-0.518 0.25,-0.528 0.281,-0.528C0.296,-0.528 0.308,-0.527 0.318,-0.525C0.327,-0.523 0.336,-0.52 0.345,-0.515L0.345,-0.452C0.334,-0.457 0.323,-0.46 0.312,-0.464C0.301,-0.467 0.288,-0.468 0.273,-0.468C0.235,-0.468 0.202,-0.451 0.175,-0.418C0.148,-0.384 0.134,-0.342 0.134,-0.292L0.134,-0L0.073,-0Z" style="fill-rule:nonzero;"/>
                    </g>
                    <g transform="matrix(18.9333,0,0,18.9333,158.326,127.427)">
                        <path d="M0.073,-0L0.073,-0.52L0.128,-0.52L0.132,-0.43C0.147,-0.46 0.168,-0.484 0.197,-0.502C0.225,-0.519 0.259,-0.528 0.3,-0.528C0.343,-0.528 0.379,-0.518 0.407,-0.497C0.435,-0.476 0.454,-0.446 0.465,-0.409C0.477,-0.445 0.498,-0.474 0.528,-0.496C0.558,-0.517 0.596,-0.528 0.641,-0.528C0.698,-0.528 0.741,-0.51 0.771,-0.475C0.801,-0.44 0.816,-0.391 0.816,-0.33L0.816,-0L0.755,-0L0.755,-0.319C0.755,-0.368 0.744,-0.407 0.722,-0.435C0.7,-0.462 0.667,-0.476 0.623,-0.476C0.6,-0.476 0.579,-0.472 0.56,-0.463C0.541,-0.454 0.526,-0.443 0.514,-0.429C0.501,-0.415 0.492,-0.399 0.485,-0.38C0.478,-0.361 0.475,-0.341 0.475,-0.32L0.475,-0L0.414,-0L0.414,-0.319C0.414,-0.368 0.403,-0.407 0.381,-0.435C0.359,-0.462 0.326,-0.476 0.282,-0.476C0.259,-0.476 0.238,-0.472 0.219,-0.463C0.2,-0.454 0.185,-0.443 0.173,-0.429C0.16,-0.415 0.151,-0.399 0.144,-0.38C0.137,-0.361 0.134,-0.341 0.134,-0.32L0.134,-0L0.073,-0Z" style="fill-rule:nonzero;"/>
                    </g>
                    <g transform="matrix(18.9333,0,0,18.9333,179.058,127.427)">
                        <path d="M0.214,0.006C0.2,0.006 0.186,0.004 0.172,0.001C0.158,-0.003 0.145,-0.009 0.134,-0.018C0.123,-0.027 0.113,-0.038 0.106,-0.053C0.099,-0.067 0.095,-0.085 0.095,-0.106L0.095,-0.47L0.031,-0.47L0.031,-0.52L0.095,-0.52L0.102,-0.622L0.156,-0.622L0.156,-0.52L0.306,-0.52L0.306,-0.47L0.156,-0.47L0.156,-0.119C0.156,-0.095 0.162,-0.077 0.175,-0.064C0.188,-0.051 0.204,-0.045 0.225,-0.045C0.242,-0.045 0.256,-0.047 0.269,-0.052C0.281,-0.056 0.293,-0.061 0.305,-0.067L0.305,-0.02C0.294,-0.013 0.281,-0.007 0.267,-0.002C0.252,0.003 0.235,0.006 0.214,0.006Z" style="fill-rule:nonzero;"/>
                    </g>
                    <g transform="matrix(18.9333,0,0,18.9333,184.927,127.427)">
                        <path d="M0.281,0.006C0.247,0.006 0.215,-0 0.186,-0.013C0.157,-0.025 0.131,-0.042 0.11,-0.065C0.089,-0.088 0.072,-0.116 0.06,-0.149C0.048,-0.182 0.042,-0.22 0.042,-0.261C0.042,-0.302 0.048,-0.34 0.06,-0.373C0.072,-0.406 0.089,-0.435 0.11,-0.458C0.131,-0.481 0.157,-0.498 0.186,-0.511C0.215,-0.523 0.247,-0.529 0.281,-0.529C0.315,-0.529 0.347,-0.523 0.376,-0.511C0.405,-0.498 0.431,-0.481 0.452,-0.458C0.472,-0.435 0.489,-0.406 0.501,-0.373C0.513,-0.34 0.519,-0.302 0.519,-0.261C0.519,-0.22 0.513,-0.182 0.501,-0.149C0.489,-0.116 0.472,-0.088 0.452,-0.065C0.431,-0.042 0.405,-0.025 0.376,-0.013C0.347,-0 0.315,0.006 0.281,0.006ZM0.281,-0.048C0.308,-0.048 0.333,-0.054 0.355,-0.065C0.376,-0.076 0.395,-0.091 0.41,-0.11C0.425,-0.129 0.436,-0.151 0.444,-0.177C0.452,-0.203 0.456,-0.231 0.456,-0.261C0.456,-0.324 0.441,-0.375 0.41,-0.414C0.379,-0.453 0.336,-0.472 0.281,-0.472C0.226,-0.472 0.183,-0.453 0.152,-0.414C0.121,-0.375 0.105,-0.324 0.105,-0.261C0.105,-0.231 0.109,-0.203 0.117,-0.177C0.125,-0.151 0.136,-0.129 0.152,-0.11C0.167,-0.091 0.185,-0.076 0.207,-0.065C0.229,-0.054 0.254,-0.048 0.281,-0.048Z" style="fill-rule:nonzero;"/>
                    </g>
                    <g transform="matrix(18.9333,0,0,18.9333,195.567,127.427)">
                        <path d="M0.281,0.006C0.247,0.006 0.215,-0 0.186,-0.013C0.157,-0.025 0.131,-0.042 0.11,-0.065C0.089,-0.088 0.072,-0.116 0.06,-0.149C0.048,-0.182 0.042,-0.22 0.042,-0.261C0.042,-0.302 0.048,-0.34 0.06,-0.373C0.072,-0.406 0.089,-0.435 0.11,-0.458C0.131,-0.481 0.157,-0.498 0.186,-0.511C0.215,-0.523 0.247,-0.529 0.281,-0.529C0.315,-0.529 0.347,-0.523 0.376,-0.511C0.405,-0.498 0.431,-0.481 0.452,-0.458C0.472,-0.435 0.489,-0.406 0.501,-0.373C0.513,-0.34 0.519,-0.302 0.519,-0.261C0.519,-0.22 0.513,-0.182 0.501,-0.149C0.489,-0.116 0.472,-0.088 0.452,-0.065C0.431,-0.042 0.405,-0.025 0.376,-0.013C0.347,-0 0.315,0.006 0.281,0.006ZM0.281,-0.048C0.308,-0.048 0.333,-0.054 0.355,-0.065C0.376,-0.076 0.395,-0.091 0.41,-0.11C0.425,-0.129 0.436,-0.151 0.444,-0.177C0.452,-0.203 0.456,-0.231 0.456,-0.261C0.456,-0.324 0.441,-0.375 0.41,-0.414C0.379,-0.453 0.336,-0.472 0.281,-0.472C0.226,-0.472 0.183,-0.453 0.152,-0.414C0.121,-0.375 0.105,-0.324 0.105,-0.261C0.105,-0.231 0.109,-0.203 0.117,-0.177C0.125,-0.151 0.136,-0.129 0.152,-0.11C0.167,-0.091 0.185,-0.076 0.207,-0.065C0.229,-0.054 0.254,-0.048 0.281,-0.048Z" style="fill-rule:nonzero;"/>
                    </g>
                    <g transform="matrix(18.9333,0,0,18.9333,206.208,127.427)">
                        <rect x="0.073" y="-0.72" width="0.061" height="0.72" style="fill-rule:nonzero;"/>
                    </g>
                    <g transform="matrix(18.9333,0,0,18.9333,210.146,127.427)">
                        <path d="M0.073,-0L0.073,-0.72L0.134,-0.72L0.134,-0.254L0.36,-0.52L0.425,-0.52L0.248,-0.307L0.464,-0L0.395,-0L0.208,-0.259L0.134,-0.17L0.134,-0L0.073,-0Z" style="fill-rule:nonzero;"/>
                    </g>
                    <g transform="matrix(18.9333,0,0,18.9333,218.931,127.427)">
                        <path d="M0.103,-0.622C0.093,-0.622 0.084,-0.626 0.077,-0.633C0.07,-0.64 0.066,-0.648 0.066,-0.658C0.066,-0.669 0.07,-0.678 0.077,-0.685C0.084,-0.692 0.093,-0.696 0.103,-0.696C0.114,-0.696 0.123,-0.692 0.131,-0.685C0.138,-0.678 0.142,-0.669 0.142,-0.658C0.142,-0.648 0.138,-0.64 0.131,-0.633C0.123,-0.626 0.114,-0.622 0.103,-0.622ZM0.073,-0L0.073,-0.52L0.134,-0.52L0.134,-0L0.073,-0Z" style="fill-rule:nonzero;"/>
                    </g>
                    <g transform="matrix(18.9333,0,0,18.9333,222.869,127.427)">
                        <path d="M0.214,0.006C0.2,0.006 0.186,0.004 0.172,0.001C0.158,-0.003 0.145,-0.009 0.134,-0.018C0.123,-0.027 0.113,-0.038 0.106,-0.053C0.099,-0.067 0.095,-0.085 0.095,-0.106L0.095,-0.47L0.031,-0.47L0.031,-0.52L0.095,-0.52L0.102,-0.622L0.156,-0.622L0.156,-0.52L0.306,-0.52L0.306,-0.47L0.156,-0.47L0.156,-0.119C0.156,-0.095 0.162,-0.077 0.175,-0.064C0.188,-0.051 0.204,-0.045 0.225,-0.045C0.242,-0.045 0.256,-0.047 0.269,-0.052C0.281,-0.056 0.293,-0.061 0.305,-0.067L0.305,-0.02C0.294,-0.013 0.281,-0.007 0.267,-0.002C0.252,0.003 0.235,0.006 0.214,0.006Z" style="fill-rule:nonzero;"/>
                    </g>
                </g>
            </g>
        </g>
    </g>
</svg>
